<svg width="24" height="24" viewBox="0 0 24 24" fill="none" xmlns="http://www.w3.org/2000/svg">
    <path d="M10.5525 2.67526C10.9579 2.33459 11.4705 2.14783 12 2.14783C12.5295 2.14783 13.0421 2.33459 13.4475 2.67526L20.1975 8.35126C20.4488 8.56239 20.6508 8.82593 20.7894 9.1234C20.928 9.42088 20.9999 9.74507 21 10.0733V19.5008C21 19.8986 20.842 20.2801 20.5607 20.5614C20.2794 20.8427 19.8978 21.0008 19.5 21.0008H15.5C15.1022 21.0008 14.7206 20.8427 14.4393 20.5614C14.158 20.2801 14 19.8986 14 19.5008V14.0007H10V19.5008C10 19.8986 9.84196 20.2801 9.56066 20.5614C9.27936 20.8427 8.89782 21.0008 8.5 21.0008H4.5C4.10218 21.0008 3.72064 20.8427 3.43934 20.5614C3.15804 20.2801 3 19.8986 3 19.5008V10.0725C3.00008 9.74432 3.07196 9.42013 3.21059 9.12266C3.34922 8.82518 3.55124 8.56164 3.8025 8.35051L10.5525 2.67526ZM12.483 4.17623C12.3478 4.06241 12.1767 4 12 4C11.8233 4 11.6522 4.06241 11.517 4.17623L5.267 9.42775C5.18357 9.49798 5.11645 9.58557 5.07034 9.6844C5.02422 9.78324 5.00022 9.89094 5 10V19H8V14C8 13.6022 8 13 8.5 12.5C9 12 9.60218 12 10 12H14C14.3978 12 15 12 15.5 12.5C16 13 16 13.6022 16 14V19H19V10C19 9.89069 18.9761 9.78269 18.93 9.68359C18.8839 9.58448 18.8166 9.49665 18.733 9.42625L12.483 4.17623Z" fill="#1F1F1F"/>
</svg>
