<svg width="24" height="24" viewBox="0 0 24 24" xmlns="http://www.w3.org/2000/svg" fill="#6E6E7E">
    <path d="M6.30002 14.3984C6.30002 13.9014 6.70297 13.4984 7.20002 13.4984H7.21202C7.70908 13.4984 8.11202 13.9014 8.11202 14.3984V14.4104C8.11202 14.9075 7.70908 15.3104 7.21202 15.3104H7.20002C6.70297 15.3104 6.30002 14.9075 6.30002 14.4104V14.3984Z"/>
    <path d="M7.20002 15.8984C6.70297 15.8984 6.30002 16.3014 6.30002 16.7984V16.8104C6.30002 17.3075 6.70297 17.7104 7.20002 17.7104H7.21202C7.70908 17.7104 8.11202 17.3075 8.11202 16.8104V16.7984C8.11202 16.3014 7.70908 15.8984 7.21202 15.8984H7.20002Z"/>
    <path d="M8.70002 14.3984C8.70002 13.9014 9.10297 13.4984 9.60002 13.4984H9.61202C10.1091 13.4984 10.512 13.9014 10.512 14.3984V14.4104C10.512 14.9075 10.1091 15.3104 9.61202 15.3104H9.60002C9.10297 15.3104 8.70002 14.9075 8.70002 14.4104V14.3984Z"/>
    <path d="M9.60002 15.8984C9.10297 15.8984 8.70002 16.3014 8.70002 16.7984V16.8104C8.70002 17.3075 9.10297 17.7104 9.60002 17.7104H9.61202C10.1091 17.7104 10.512 17.3075 10.512 16.8104V16.7984C10.512 16.3014 10.1091 15.8984 9.61202 15.8984H9.60002Z"/>
    <path d="M11.1 11.9984C11.1 11.5014 11.503 11.0984 12 11.0984H12.012C12.5091 11.0984 12.912 11.5014 12.912 11.9984V12.0104C12.912 12.5075 12.5091 12.9104 12.012 12.9104H12C11.503 12.9104 11.1 12.5075 11.1 12.0104V11.9984Z"/>
    <path d="M12 13.4984C11.503 13.4984 11.1 13.9014 11.1 14.3984V14.4104C11.1 14.9075 11.503 15.3104 12 15.3104H12.012C12.5091 15.3104 12.912 14.9075 12.912 14.4104V14.3984C12.912 13.9014 12.5091 13.4984 12.012 13.4984H12Z"/>
    <path d="M11.1 16.7984C11.1 16.3014 11.503 15.8984 12 15.8984H12.012C12.5091 15.8984 12.912 16.3014 12.912 16.7984V16.8104C12.912 17.3075 12.5091 17.7104 12.012 17.7104H12C11.503 17.7104 11.1 17.3075 11.1 16.8104V16.7984Z"/>
    <path d="M14.4 11.0984C13.903 11.0984 13.5 11.5014 13.5 11.9984V12.0104C13.5 12.5075 13.903 12.9104 14.4 12.9104H14.412C14.9091 12.9104 15.312 12.5075 15.312 12.0104V11.9984C15.312 11.5014 14.9091 11.0984 14.412 11.0984H14.4Z"/>
    <path d="M13.5 14.3984C13.5 13.9014 13.903 13.4984 14.4 13.4984H14.412C14.9091 13.4984 15.312 13.9014 15.312 14.3984V14.4104C15.312 14.9075 14.9091 15.3104 14.412 15.3104H14.4C13.903 15.3104 13.5 14.9075 13.5 14.4104V14.3984Z"/>
    <path d="M14.4 15.8984C13.903 15.8984 13.5 16.3014 13.5 16.7984V16.8104C13.5 17.3075 13.903 17.7104 14.4 17.7104H14.412C14.9091 17.7104 15.312 17.3075 15.312 16.8104V16.7984C15.312 16.3014 14.9091 15.8984 14.412 15.8984H14.4Z"/>
    <path d="M15.9 11.9984C15.9 11.5014 16.303 11.0984 16.8 11.0984H16.812C17.3091 11.0984 17.712 11.5014 17.712 11.9984V12.0104C17.712 12.5075 17.3091 12.9104 16.812 12.9104H16.8C16.303 12.9104 15.9 12.5075 15.9 12.0104V11.9984Z"/>
    <path d="M16.8 13.4984C16.303 13.4984 15.9 13.9014 15.9 14.3984V14.4104C15.9 14.9075 16.303 15.3104 16.8 15.3104H16.812C17.3091 15.3104 17.712 14.9075 17.712 14.4104V14.3984C17.712 13.9014 17.3091 13.4984 16.812 13.4984H16.8Z"/>
    <path fill-rule="evenodd" clip-rule="evenodd"
          d="M6.90002 2.39844C7.39708 2.39844 7.80002 2.80138 7.80002 3.29844V4.79844H16.2V3.29844C16.2 2.80138 16.603 2.39844 17.1 2.39844C17.5971 2.39844 18 2.80138 18 3.29844V4.79844H18.3C20.1226 4.79844 21.6 6.2759 21.6 8.09844V18.2984C21.6 20.121 20.1226 21.5984 18.3 21.5984H5.70002C3.87749 21.5984 2.40002 20.121 2.40002 18.2984V8.09844C2.40002 6.2759 3.87748 4.79844 5.70002 4.79844H6.00002V3.29844C6.00002 2.80138 6.40297 2.39844 6.90002 2.39844ZM5.70002 8.99844C4.8716 8.99844 4.20002 9.67001 4.20002 10.4984V18.2984C4.20002 19.1269 4.8716 19.7984 5.70002 19.7984H18.3C19.1285 19.7984 19.8 19.1269 19.8 18.2984V10.4984C19.8 9.67001 19.1285 8.99844 18.3 8.99844H5.70002Z"/>
</svg>
